<svg width="264" height="38" viewBox="0 0 264 38" fill="none" xmlns="http://www.w3.org/2000/svg">
<path d="M8.42827 37H0.189631L12.7429 0.636363H22.6506L35.1861 37H26.9474L17.8388 8.94602H17.5547L8.42827 37ZM7.91335 22.7067H27.3736V28.7081H7.91335V22.7067ZM39.5629 37V0.636363H54.1225C56.7977 0.636363 59.029 1.03291 60.8164 1.82599C62.6038 2.61908 63.9473 3.71993 64.8469 5.12855C65.7466 6.52533 66.1964 8.13518 66.1964 9.9581C66.1964 11.3786 65.9123 12.6274 65.3441 13.7045C64.7759 14.7699 63.9947 15.6458 63.0004 16.3324C62.0179 17.0071 60.8933 17.4865 59.6268 17.7706V18.1257C61.0117 18.1849 62.3079 18.5755 63.5153 19.2976C64.7345 20.0196 65.7229 21.0317 66.4805 22.3338C67.238 23.6241 67.6168 25.1629 67.6168 26.9503C67.6168 28.8797 67.1374 30.602 66.1786 32.1172C65.2317 33.6205 63.829 34.8101 61.9705 35.6861C60.1121 36.562 57.8216 37 55.0991 37H39.5629ZM47.2511 30.7145H53.5188C55.6613 30.7145 57.2238 30.3061 58.2063 29.4893C59.1888 28.6607 59.68 27.5599 59.68 26.1868C59.68 25.1806 59.4374 24.2929 58.9521 23.5234C58.4667 22.754 57.7743 22.1503 56.8746 21.7124C55.9869 21.2744 54.9274 21.0554 53.6964 21.0554H47.2511V30.7145ZM47.2511 15.853H52.9506C54.0041 15.853 54.9393 15.6695 55.756 15.3026C56.5846 14.9238 57.2357 14.3911 57.7092 13.7045C58.1945 13.018 58.4371 12.1953 58.4371 11.2365C58.4371 9.92259 57.9696 8.86316 57.0344 8.05824C56.1112 7.25331 54.7972 6.85085 53.0927 6.85085H47.2511V15.853ZM106.036 18.8182C106.036 22.7836 105.284 26.1572 103.781 28.9389C102.289 31.7206 100.253 33.8454 97.6728 35.3132C95.1041 36.7692 92.2159 37.4972 89.008 37.4972C85.7765 37.4972 82.8764 36.7633 80.3077 35.2955C77.7391 33.8277 75.709 31.7029 74.2175 28.9212C72.726 26.1394 71.9803 22.7718 71.9803 18.8182C71.9803 14.8527 72.726 11.4792 74.2175 8.69744C75.709 5.91572 77.7391 3.79687 80.3077 2.34091C82.8764 0.873105 85.7765 0.139203 89.008 0.139203C92.2159 0.139203 95.1041 0.873105 97.6728 2.34091C100.253 3.79687 102.289 5.91572 103.781 8.69744C105.284 11.4792 106.036 14.8527 106.036 18.8182ZM98.2409 18.8182C98.2409 16.2495 97.8562 14.0833 97.0868 12.3196C96.3292 10.5559 95.258 9.21828 93.873 8.30682C92.4881 7.39536 90.8664 6.93963 89.008 6.93963C87.1496 6.93963 85.5279 7.39536 84.1429 8.30682C82.758 9.21828 81.6808 10.5559 80.9114 12.3196C80.1538 14.0833 79.775 16.2495 79.775 18.8182C79.775 21.3868 80.1538 23.553 80.9114 25.3168C81.6808 27.0805 82.758 28.4181 84.1429 29.3295C85.5279 30.241 87.1496 30.6967 89.008 30.6967C90.8664 30.6967 92.4881 30.241 93.873 29.3295C95.258 28.4181 96.3292 27.0805 97.0868 25.3168C97.8562 23.553 98.2409 21.3868 98.2409 18.8182ZM134.192 0.636363H141.88V24.2514C141.88 26.9029 141.247 29.223 139.98 31.2116C138.725 33.2003 136.968 34.7509 134.707 35.8636C132.446 36.9645 129.812 37.5149 126.805 37.5149C123.787 37.5149 121.147 36.9645 118.886 35.8636C116.625 34.7509 114.868 33.2003 113.613 31.2116C112.358 29.223 111.731 26.9029 111.731 24.2514V0.636363H119.419V23.5945C119.419 24.9794 119.721 26.2105 120.325 27.2876C120.94 28.3648 121.804 29.2112 122.917 29.8267C124.03 30.4422 125.326 30.75 126.805 30.75C128.297 30.75 129.593 30.4422 130.694 29.8267C131.807 29.2112 132.665 28.3648 133.268 27.2876C133.884 26.2105 134.192 24.9794 134.192 23.5945V0.636363ZM146.82 6.97514V0.636363H176.686V6.97514H165.553V37H157.953V6.97514H146.82ZM193.176 0.636363H202.658L212.672 25.0682H213.098L223.112 0.636363H232.594V37H225.136V13.3317H224.835L215.424 36.8224H210.346L200.935 13.2429H200.634V37H193.176V0.636363ZM238.928 37V0.636363H263.431V6.97514H246.616V15.6399H262.17V21.9787H246.616V30.6612H263.502V37H238.928Z" fill="#E85959"/>
</svg>
