<svg width="957" height="263" viewBox="0 0 957 263" fill="none" xmlns="http://www.w3.org/2000/svg">
<path d="M4.26136 43.9403V28.7273H75.9375V43.9403H49.2188V116H30.9801V43.9403H4.26136ZM87.7415 116V28.7273H106.193V64.7358H143.651V28.7273H162.06V116H143.651V79.9489H106.193V116H87.7415ZM195.724 28.7273V116H177.273V28.7273H195.724ZM210.906 116V28.7273H229.357V100.787H266.772V116H210.906ZM278.991 116V28.7273H297.443V100.787H334.858V116H278.991ZM364.347 116H344.574L374.702 28.7273H398.48L428.565 116H408.793L386.932 48.6705H386.25L364.347 116ZM363.111 81.696H409.815V96.0994H363.111V81.696ZM457.521 28.7273V116H439.07V28.7273H457.521ZM54.929 198.827C54.5881 195.389 53.125 192.719 50.5398 190.815C47.9545 188.912 44.446 187.96 40.0142 187.96C37.0028 187.96 34.4602 188.386 32.3864 189.239C30.3125 190.062 28.7216 191.213 27.6136 192.69C26.5341 194.168 25.9943 195.844 25.9943 197.719C25.9375 199.281 26.2642 200.645 26.9744 201.81C27.7131 202.974 28.7216 203.983 30 204.835C31.2784 205.659 32.7557 206.384 34.4318 207.009C36.108 207.605 37.8977 208.116 39.8011 208.543L47.642 210.418C51.4489 211.27 54.9432 212.406 58.125 213.827C61.3068 215.247 64.0625 216.994 66.392 219.068C68.7216 221.142 70.5256 223.585 71.804 226.398C73.1108 229.21 73.7784 232.435 73.8068 236.071C73.7784 241.412 72.4148 246.043 69.7159 249.963C67.0455 253.855 63.1818 256.881 58.125 259.04C53.0966 261.17 47.0313 262.236 39.929 262.236C32.8835 262.236 26.7472 261.156 21.5199 258.997C16.321 256.838 12.2585 253.642 9.33239 249.409C6.43466 245.148 4.91477 239.878 4.77273 233.599H22.6278C22.8267 236.526 23.6648 238.969 25.142 240.929C26.6477 242.861 28.6506 244.324 31.1506 245.318C33.679 246.284 36.5341 246.767 39.7159 246.767C42.8409 246.767 45.554 246.312 47.8551 245.403C50.1847 244.494 51.9886 243.23 53.267 241.611C54.5455 239.991 55.1847 238.131 55.1847 236.028C55.1847 234.068 54.6023 232.42 53.4375 231.085C52.3011 229.75 50.625 228.614 48.4091 227.676C46.2216 226.739 43.5369 225.886 40.3551 225.119L30.8523 222.733C23.4943 220.943 17.6847 218.145 13.4233 214.338C9.16193 210.531 7.04545 205.403 7.07386 198.955C7.04545 193.67 8.4517 189.054 11.2926 185.105C14.1619 181.156 18.0966 178.074 23.0966 175.858C28.0966 173.642 33.7784 172.534 40.142 172.534C46.6193 172.534 52.2727 173.642 57.1023 175.858C61.9602 178.074 65.7386 181.156 68.4375 185.105C71.1364 189.054 72.5284 193.628 72.6136 198.827H54.929ZM140.124 173.727H158.576V230.403C158.576 236.767 157.056 242.335 154.016 247.108C151.005 251.881 146.786 255.602 141.36 258.273C135.934 260.915 129.613 262.236 122.397 262.236C115.153 262.236 108.817 260.915 103.391 258.273C97.9652 255.602 93.7464 251.881 90.7351 247.108C87.7237 242.335 86.218 236.767 86.218 230.403V173.727H104.67V228.827C104.67 232.151 105.394 235.105 106.843 237.69C108.32 240.276 110.394 242.307 113.065 243.784C115.735 245.261 118.846 246 122.397 246C125.977 246 129.087 245.261 131.729 243.784C134.4 242.307 136.46 240.276 137.908 237.69C139.386 235.105 140.124 232.151 140.124 228.827V173.727ZM204.695 261H173.757V173.727H204.95C213.729 173.727 221.286 175.474 227.621 178.969C233.956 182.435 238.828 187.42 242.237 193.926C245.675 200.432 247.393 208.216 247.393 217.278C247.393 226.369 245.675 234.182 242.237 240.716C238.828 247.25 233.928 252.264 227.536 255.759C221.172 259.253 213.558 261 204.695 261ZM192.209 245.19H203.928C209.382 245.19 213.97 244.224 217.692 242.293C221.442 240.332 224.254 237.307 226.129 233.216C228.033 229.097 228.984 223.784 228.984 217.278C228.984 210.83 228.033 205.56 226.129 201.469C224.254 197.378 221.456 194.366 217.734 192.435C214.013 190.503 209.425 189.537 203.97 189.537H192.209V245.19ZM261.062 261V173.727H279.513V209.736H316.971V173.727H335.38V261H316.971V224.949H279.513V261H261.062ZM365.636 261H345.863L375.991 173.727H399.769L429.854 261H410.082L388.221 193.67H387.539L365.636 261ZM364.4 226.696H411.104V241.099H364.4V226.696ZM440.359 261V173.727H458.81V212.207H459.961L491.367 173.727H513.484L481.097 212.804L513.867 261H491.793L467.887 225.119L458.81 236.199V261H440.359ZM538.136 261H518.363L548.491 173.727H572.269L602.354 261H582.582L560.721 193.67H560.039L538.136 261ZM536.9 226.696H583.604V241.099H536.9V226.696ZM612.859 261V173.727H647.29C653.881 173.727 659.506 174.906 664.165 177.264C668.853 179.594 672.418 182.903 674.862 187.193C677.333 191.455 678.569 196.469 678.569 202.236C678.569 208.031 677.319 213.017 674.819 217.193C672.319 221.341 668.697 224.523 663.952 226.739C659.237 228.955 653.526 230.062 646.822 230.062H623.768V215.233H643.839C647.362 215.233 650.288 214.75 652.617 213.784C654.947 212.818 656.68 211.369 657.816 209.438C658.981 207.506 659.563 205.105 659.563 202.236C659.563 199.338 658.981 196.895 657.816 194.906C656.68 192.918 654.933 191.412 652.575 190.389C650.245 189.338 647.305 188.812 643.754 188.812H631.31V261H612.859ZM659.989 221.284L681.68 261H661.31L640.089 221.284H659.989Z" fill="#E85959"/>
<mask id="path-2-outside-1_10_90" maskUnits="userSpaceOnUse" x="471" y="26" width="443" height="92" fill="black">
<rect fill="white" x="471" y="26" width="443" height="92"/>
<path d="M546.582 28.7273V116H530.645L492.676 61.071H492.037V116H473.585V28.7273H489.778L527.449 83.6136H528.216V28.7273H546.582ZM576.87 116H557.097L587.225 28.7273H611.004L641.089 116H621.316L599.455 48.6705H598.773L576.87 116ZM575.634 81.696H622.339V96.0994H575.634V81.696ZM637.573 28.7273H658.241L678.141 66.3125H678.994L698.894 28.7273H719.562L687.729 85.1477V116H669.406V85.1477L637.573 28.7273ZM735.776 116H716.004L746.131 28.7273H769.91L799.995 116H780.222L758.362 48.6705H757.68L735.776 116ZM734.54 81.696H781.245V96.0994H734.54V81.696ZM810.499 116V28.7273H828.951V67.2074H830.102L861.508 28.7273H883.624L851.238 67.804L884.008 116H861.934L838.028 80.1193L828.951 91.1989V116H810.499ZM911.685 28.7273V116H893.234V28.7273H911.685Z"/>
</mask>
<path d="M546.582 28.7273V116H530.645L492.676 61.071H492.037V116H473.585V28.7273H489.778L527.449 83.6136H528.216V28.7273H546.582ZM576.87 116H557.097L587.225 28.7273H611.004L641.089 116H621.316L599.455 48.6705H598.773L576.87 116ZM575.634 81.696H622.339V96.0994H575.634V81.696ZM637.573 28.7273H658.241L678.141 66.3125H678.994L698.894 28.7273H719.562L687.729 85.1477V116H669.406V85.1477L637.573 28.7273ZM735.776 116H716.004L746.131 28.7273H769.91L799.995 116H780.222L758.362 48.6705H757.68L735.776 116ZM734.54 81.696H781.245V96.0994H734.54V81.696ZM810.499 116V28.7273H828.951V67.2074H830.102L861.508 28.7273H883.624L851.238 67.804L884.008 116H861.934L838.028 80.1193L828.951 91.1989V116H810.499ZM911.685 28.7273V116H893.234V28.7273H911.685Z" fill="white"/>
<path d="M546.582 28.7273H548.582V26.7273H546.582V28.7273ZM546.582 116V118H548.582V116H546.582ZM530.645 116L529 117.137L529.596 118H530.645V116ZM492.676 61.071L494.321 59.9338L493.725 59.071H492.676V61.071ZM492.037 61.071V59.071H490.037V61.071H492.037ZM492.037 116V118H494.037V116H492.037ZM473.585 116H471.585V118H473.585V116ZM473.585 28.7273V26.7273H471.585V28.7273H473.585ZM489.778 28.7273L491.427 27.5955L490.831 26.7273H489.778V28.7273ZM527.449 83.6136L525.8 84.7454L526.396 85.6136H527.449V83.6136ZM528.216 83.6136V85.6136H530.216V83.6136H528.216ZM528.216 28.7273V26.7273H526.216V28.7273H528.216ZM544.582 28.7273V116H548.582V28.7273H544.582ZM546.582 114H530.645V118H546.582V114ZM532.29 114.863L494.321 59.9338L491.031 62.2082L529 117.137L532.29 114.863ZM492.676 59.071H492.037V63.071H492.676V59.071ZM490.037 61.071V116H494.037V61.071H490.037ZM492.037 114H473.585V118H492.037V114ZM475.585 116V28.7273H471.585V116H475.585ZM473.585 30.7273H489.778V26.7273H473.585V30.7273ZM488.129 29.859L525.8 84.7454L529.098 82.4819L491.427 27.5955L488.129 29.859ZM527.449 85.6136H528.216V81.6136H527.449V85.6136ZM530.216 83.6136V28.7273H526.216V83.6136H530.216ZM528.216 30.7273H546.582V26.7273H528.216V30.7273ZM576.87 116V118H578.323L578.772 116.619L576.87 116ZM557.097 116L555.207 115.347L554.291 118H557.097V116ZM587.225 28.7273V26.7273H585.8L585.335 28.0746L587.225 28.7273ZM611.004 28.7273L612.894 28.0755L612.43 26.7273H611.004V28.7273ZM641.089 116V118H643.894L642.98 115.348L641.089 116ZM621.316 116L619.414 116.618L619.863 118H621.316V116ZM599.455 48.6705L601.358 48.0528L600.909 46.6705H599.455V48.6705ZM598.773 48.6705V46.6705H597.321L596.872 48.0517L598.773 48.6705ZM575.634 81.696V79.696H573.634V81.696H575.634ZM622.339 81.696H624.339V79.696H622.339V81.696ZM622.339 96.0994V98.0994H624.339V96.0994H622.339ZM575.634 96.0994H573.634V98.0994H575.634V96.0994ZM576.87 114H557.097V118H576.87V114ZM558.988 116.653L589.116 29.3799L585.335 28.0746L555.207 115.347L558.988 116.653ZM587.225 30.7273H611.004V26.7273H587.225V30.7273ZM609.113 29.3791L639.198 116.652L642.98 115.348L612.894 28.0755L609.113 29.3791ZM641.089 114H621.316V118H641.089V114ZM623.218 115.382L601.358 48.0528L597.553 49.2881L619.414 116.618L623.218 115.382ZM599.455 46.6705H598.773V50.6705H599.455V46.6705ZM596.872 48.0517L574.968 115.381L578.772 116.619L600.675 49.2892L596.872 48.0517ZM575.634 83.696H622.339V79.696H575.634V83.696ZM620.339 81.696V96.0994H624.339V81.696H620.339ZM622.339 94.0994H575.634V98.0994H622.339V94.0994ZM577.634 96.0994V81.696H573.634V96.0994H577.634ZM637.573 28.7273V26.7273H634.148L635.831 29.71L637.573 28.7273ZM658.241 28.7273L660.008 27.7914L659.445 26.7273H658.241V28.7273ZM678.141 66.3125L676.374 67.2484L676.937 68.3125H678.141V66.3125ZM678.994 66.3125V68.3125H680.198L680.761 67.2484L678.994 66.3125ZM698.894 28.7273V26.7273H697.69L697.127 27.7914L698.894 28.7273ZM719.562 28.7273L721.304 29.71L722.987 26.7273H719.562V28.7273ZM687.729 85.1477L685.988 84.165L685.729 84.6224V85.1477H687.729ZM687.729 116V118H689.729V116H687.729ZM669.406 116H667.406V118H669.406V116ZM669.406 85.1477H671.406V84.6224L671.147 84.165L669.406 85.1477ZM637.573 30.7273H658.241V26.7273H637.573V30.7273ZM656.473 29.6631L676.374 67.2484L679.909 65.3766L660.008 27.7914L656.473 29.6631ZM678.141 68.3125H678.994V64.3125H678.141V68.3125ZM680.761 67.2484L700.662 29.6631L697.127 27.7914L677.226 65.3766L680.761 67.2484ZM698.894 30.7273H719.562V26.7273H698.894V30.7273ZM717.82 27.7445L685.988 84.165L689.471 86.1305L721.304 29.71L717.82 27.7445ZM685.729 85.1477V116H689.729V85.1477H685.729ZM687.729 114H669.406V118H687.729V114ZM671.406 116V85.1477H667.406V116H671.406ZM671.147 84.165L639.315 27.7445L635.831 29.71L667.664 86.1305L671.147 84.165ZM735.776 116V118H737.229L737.678 116.619L735.776 116ZM716.004 116L714.113 115.347L713.197 118H716.004V116ZM746.131 28.7273V26.7273H744.706L744.241 28.0746L746.131 28.7273ZM769.91 28.7273L771.801 28.0755L771.336 26.7273H769.91V28.7273ZM799.995 116V118H802.8L801.886 115.348L799.995 116ZM780.222 116L778.32 116.618L778.769 118H780.222V116ZM758.362 48.6705L760.264 48.0528L759.815 46.6705H758.362V48.6705ZM757.68 48.6705V46.6705H756.227L755.778 48.0517L757.68 48.6705ZM734.54 81.696V79.696H732.54V81.696H734.54ZM781.245 81.696H783.245V79.696H781.245V81.696ZM781.245 96.0994V98.0994H783.245V96.0994H781.245ZM734.54 96.0994H732.54V98.0994H734.54V96.0994ZM735.776 114H716.004V118H735.776V114ZM717.894 116.653L748.022 29.3799L744.241 28.0746L714.113 115.347L717.894 116.653ZM746.131 30.7273H769.91V26.7273H746.131V30.7273ZM768.019 29.3791L798.104 116.652L801.886 115.348L771.801 28.0755L768.019 29.3791ZM799.995 114H780.222V118H799.995V114ZM782.125 115.382L760.264 48.0528L756.459 49.2881L778.32 116.618L782.125 115.382ZM758.362 46.6705H757.68V50.6705H758.362V46.6705ZM755.778 48.0517L733.874 115.381L737.678 116.619L759.582 49.2892L755.778 48.0517ZM734.54 83.696H781.245V79.696H734.54V83.696ZM779.245 81.696V96.0994H783.245V81.696H779.245ZM781.245 94.0994H734.54V98.0994H781.245V94.0994ZM736.54 96.0994V81.696H732.54V96.0994H736.54ZM810.499 116H808.499V118H810.499V116ZM810.499 28.7273V26.7273H808.499V28.7273H810.499ZM828.951 28.7273H830.951V26.7273H828.951V28.7273ZM828.951 67.2074H826.951V69.2074H828.951V67.2074ZM830.102 67.2074V69.2074H831.051L831.651 68.472L830.102 67.2074ZM861.508 28.7273V26.7273H860.559L859.958 27.4627L861.508 28.7273ZM883.624 28.7273L885.164 30.0035L887.879 26.7273H883.624V28.7273ZM851.238 67.804L849.698 66.5277L848.739 67.6853L849.584 68.9285L851.238 67.804ZM884.008 116V118H887.786L885.662 114.875L884.008 116ZM861.934 116L860.27 117.109L860.863 118H861.934V116ZM838.028 80.1193L839.692 79.0104L838.193 76.761L836.481 78.8519L838.028 80.1193ZM828.951 91.1989L827.404 89.9314L826.951 90.4842V91.1989H828.951ZM828.951 116V118H830.951V116H828.951ZM812.499 116V28.7273H808.499V116H812.499ZM810.499 30.7273H828.951V26.7273H810.499V30.7273ZM826.951 28.7273V67.2074H830.951V28.7273H826.951ZM828.951 69.2074H830.102V65.2074H828.951V69.2074ZM831.651 68.472L863.057 29.9919L859.958 27.4627L828.552 65.9428L831.651 68.472ZM861.508 30.7273H883.624V26.7273H861.508V30.7273ZM882.084 27.451L849.698 66.5277L852.778 69.0802L885.164 30.0035L882.084 27.451ZM849.584 68.9285L882.354 117.125L885.662 114.875L852.892 66.6794L849.584 68.9285ZM884.008 114H861.934V118H884.008V114ZM863.598 114.891L839.692 79.0104L836.363 81.2283L860.27 117.109L863.598 114.891ZM836.481 78.8519L827.404 89.9314L830.498 92.4663L839.575 81.3868L836.481 78.8519ZM826.951 91.1989V116H830.951V91.1989H826.951ZM828.951 114H810.499V118H828.951V114ZM911.685 28.7273H913.685V26.7273H911.685V28.7273ZM911.685 116V118H913.685V116H911.685ZM893.234 116H891.234V118H893.234V116ZM893.234 28.7273V26.7273H891.234V28.7273H893.234ZM909.685 28.7273V116H913.685V28.7273H909.685ZM911.685 114H893.234V118H911.685V114ZM895.234 116V28.7273H891.234V116H895.234ZM893.234 30.7273H911.685V26.7273H893.234V30.7273Z" fill="#E85959" mask="url(#path-2-outside-1_10_90)"/>
</svg>
