<svg width="973" height="234" viewBox="0 0 973 234" fill="none" xmlns="http://www.w3.org/2000/svg">
<path d="M27.7028 43.9403V28.7273H99.3789V43.9403H72.6602V116H54.4215V43.9403H27.7028ZM111.183 116V28.7273H129.635V64.7358H167.092V28.7273H185.501V116H167.092V79.9489H129.635V116H111.183ZM219.166 28.7273V116H200.714V28.7273H219.166ZM234.347 116V28.7273H252.799V100.787H290.213V116H234.347ZM302.433 116V28.7273H320.885V100.787H358.299V116H302.433ZM387.788 116H368.015L398.143 28.7273H421.922L452.007 116H432.234L410.373 48.6705H409.691L387.788 116ZM386.552 81.696H433.257V96.0994H386.552V81.696ZM480.963 28.7273V116H462.511V28.7273H480.963Z" fill="#E85959"/>
<mask id="path-2-outside-1_15_52" maskUnits="userSpaceOnUse" x="500" y="26" width="443" height="92" fill="black">
<rect fill="white" x="500" y="26" width="443" height="92"/>
<path d="M575.582 28.7273V116H559.645L521.676 61.071H521.037V116H502.585V28.7273H518.778L556.449 83.6136H557.216V28.7273H575.582ZM605.87 116H586.097L616.225 28.7273H640.004L670.089 116H650.316L628.455 48.6705H627.773L605.87 116ZM604.634 81.696H651.339V96.0994H604.634V81.696ZM666.573 28.7273H687.241L707.141 66.3125H707.994L727.894 28.7273H748.562L716.729 85.1477V116H698.406V85.1477L666.573 28.7273ZM764.776 116H745.004L775.131 28.7273H798.91L828.995 116H809.222L787.362 48.6705H786.68L764.776 116ZM763.54 81.696H810.245V96.0994H763.54V81.696ZM839.499 116V28.7273H857.951V67.2074H859.102L890.508 28.7273H912.624L880.238 67.804L913.008 116H890.934L867.028 80.1193L857.951 91.1989V116H839.499ZM940.685 28.7273V116H922.234V28.7273H940.685Z"/>
</mask>
<path d="M575.582 28.7273V116H559.645L521.676 61.071H521.037V116H502.585V28.7273H518.778L556.449 83.6136H557.216V28.7273H575.582ZM605.87 116H586.097L616.225 28.7273H640.004L670.089 116H650.316L628.455 48.6705H627.773L605.87 116ZM604.634 81.696H651.339V96.0994H604.634V81.696ZM666.573 28.7273H687.241L707.141 66.3125H707.994L727.894 28.7273H748.562L716.729 85.1477V116H698.406V85.1477L666.573 28.7273ZM764.776 116H745.004L775.131 28.7273H798.91L828.995 116H809.222L787.362 48.6705H786.68L764.776 116ZM763.54 81.696H810.245V96.0994H763.54V81.696ZM839.499 116V28.7273H857.951V67.2074H859.102L890.508 28.7273H912.624L880.238 67.804L913.008 116H890.934L867.028 80.1193L857.951 91.1989V116H839.499ZM940.685 28.7273V116H922.234V28.7273H940.685Z" fill="white"/>
<path d="M575.582 28.7273H577.582V26.7273H575.582V28.7273ZM575.582 116V118H577.582V116H575.582ZM559.645 116L558 117.137L558.596 118H559.645V116ZM521.676 61.071L523.321 59.9338L522.725 59.071H521.676V61.071ZM521.037 61.071V59.071H519.037V61.071H521.037ZM521.037 116V118H523.037V116H521.037ZM502.585 116H500.585V118H502.585V116ZM502.585 28.7273V26.7273H500.585V28.7273H502.585ZM518.778 28.7273L520.427 27.5955L519.831 26.7273H518.778V28.7273ZM556.449 83.6136L554.8 84.7454L555.396 85.6136H556.449V83.6136ZM557.216 83.6136V85.6136H559.216V83.6136H557.216ZM557.216 28.7273V26.7273H555.216V28.7273H557.216ZM575.582 28.7273H573.582V116H575.582H577.582V28.7273H575.582ZM575.582 116V114H559.645V116V118H575.582V116ZM559.645 116L561.29 114.863L523.321 59.9338L521.676 61.071L520.031 62.2082L558 117.137L559.645 116ZM521.676 61.071V59.071H521.037V61.071V63.071H521.676V61.071ZM521.037 61.071H519.037V116H521.037H523.037V61.071H521.037ZM521.037 116V114H502.585V116V118H521.037V116ZM502.585 116H504.585V28.7273H502.585H500.585V116H502.585ZM502.585 28.7273V30.7273H518.778V28.7273V26.7273H502.585V28.7273ZM518.778 28.7273L517.129 29.859L554.8 84.7454L556.449 83.6136L558.098 82.4819L520.427 27.5955L518.778 28.7273ZM556.449 83.6136V85.6136H557.216V83.6136V81.6136H556.449V83.6136ZM557.216 83.6136H559.216V28.7273H557.216H555.216V83.6136H557.216ZM557.216 28.7273V30.7273H575.582V28.7273V26.7273H557.216V28.7273ZM605.87 116V118H607.323L607.772 116.619L605.87 116ZM586.097 116L584.207 115.347L583.291 118H586.097V116ZM616.225 28.7273V26.7273H614.8L614.335 28.0746L616.225 28.7273ZM640.004 28.7273L641.894 28.0755L641.43 26.7273H640.004V28.7273ZM670.089 116V118H672.894L671.98 115.348L670.089 116ZM650.316 116L648.414 116.618L648.863 118H650.316V116ZM628.455 48.6705L630.358 48.0528L629.909 46.6705H628.455V48.6705ZM627.773 48.6705V46.6705H626.321L625.872 48.0517L627.773 48.6705ZM604.634 81.696V79.696H602.634V81.696H604.634ZM651.339 81.696H653.339V79.696H651.339V81.696ZM651.339 96.0994V98.0994H653.339V96.0994H651.339ZM604.634 96.0994H602.634V98.0994H604.634V96.0994ZM605.87 116V114H586.097V116V118H605.87V116ZM586.097 116L587.988 116.653L618.116 29.3799L616.225 28.7273L614.335 28.0746L584.207 115.347L586.097 116ZM616.225 28.7273V30.7273H640.004V28.7273V26.7273H616.225V28.7273ZM640.004 28.7273L638.113 29.3791L668.198 116.652L670.089 116L671.98 115.348L641.894 28.0755L640.004 28.7273ZM670.089 116V114H650.316V116V118H670.089V116ZM650.316 116L652.218 115.382L630.358 48.0528L628.455 48.6705L626.553 49.2881L648.414 116.618L650.316 116ZM628.455 48.6705V46.6705H627.773V48.6705V50.6705H628.455V48.6705ZM627.773 48.6705L625.872 48.0517L603.968 115.381L605.87 116L607.772 116.619L629.675 49.2892L627.773 48.6705ZM604.634 81.696V83.696H651.339V81.696V79.696H604.634V81.696ZM651.339 81.696H649.339V96.0994H651.339H653.339V81.696H651.339ZM651.339 96.0994V94.0994H604.634V96.0994V98.0994H651.339V96.0994ZM604.634 96.0994H606.634V81.696H604.634H602.634V96.0994H604.634ZM666.573 28.7273V26.7273H663.148L664.831 29.71L666.573 28.7273ZM687.241 28.7273L689.008 27.7914L688.445 26.7273H687.241V28.7273ZM707.141 66.3125L705.374 67.2484L705.937 68.3125H707.141V66.3125ZM707.994 66.3125V68.3125H709.198L709.761 67.2484L707.994 66.3125ZM727.894 28.7273V26.7273H726.69L726.127 27.7914L727.894 28.7273ZM748.562 28.7273L750.304 29.71L751.987 26.7273H748.562V28.7273ZM716.729 85.1477L714.988 84.165L714.729 84.6224V85.1477H716.729ZM716.729 116V118H718.729V116H716.729ZM698.406 116H696.406V118H698.406V116ZM698.406 85.1477H700.406V84.6224L700.147 84.165L698.406 85.1477ZM666.573 28.7273V30.7273H687.241V28.7273V26.7273H666.573V28.7273ZM687.241 28.7273L685.473 29.6631L705.374 67.2484L707.141 66.3125L708.909 65.3766L689.008 27.7914L687.241 28.7273ZM707.141 66.3125V68.3125H707.994V66.3125V64.3125H707.141V66.3125ZM707.994 66.3125L709.761 67.2484L729.662 29.6631L727.894 28.7273L726.127 27.7914L706.226 65.3766L707.994 66.3125ZM727.894 28.7273V30.7273H748.562V28.7273V26.7273H727.894V28.7273ZM748.562 28.7273L746.82 27.7445L714.988 84.165L716.729 85.1477L718.471 86.1305L750.304 29.71L748.562 28.7273ZM716.729 85.1477H714.729V116H716.729H718.729V85.1477H716.729ZM716.729 116V114H698.406V116V118H716.729V116ZM698.406 116H700.406V85.1477H698.406H696.406V116H698.406ZM698.406 85.1477L700.147 84.165L668.315 27.7445L666.573 28.7273L664.831 29.71L696.664 86.1305L698.406 85.1477ZM764.776 116V118H766.229L766.678 116.619L764.776 116ZM745.004 116L743.113 115.347L742.197 118H745.004V116ZM775.131 28.7273V26.7273H773.706L773.241 28.0746L775.131 28.7273ZM798.91 28.7273L800.801 28.0755L800.336 26.7273H798.91V28.7273ZM828.995 116V118H831.8L830.886 115.348L828.995 116ZM809.222 116L807.32 116.618L807.769 118H809.222V116ZM787.362 48.6705L789.264 48.0528L788.815 46.6705H787.362V48.6705ZM786.68 48.6705V46.6705H785.227L784.778 48.0517L786.68 48.6705ZM763.54 81.696V79.696H761.54V81.696H763.54ZM810.245 81.696H812.245V79.696H810.245V81.696ZM810.245 96.0994V98.0994H812.245V96.0994H810.245ZM763.54 96.0994H761.54V98.0994H763.54V96.0994ZM764.776 116V114H745.004V116V118H764.776V116ZM745.004 116L746.894 116.653L777.022 29.3799L775.131 28.7273L773.241 28.0746L743.113 115.347L745.004 116ZM775.131 28.7273V30.7273H798.91V28.7273V26.7273H775.131V28.7273ZM798.91 28.7273L797.019 29.3791L827.104 116.652L828.995 116L830.886 115.348L800.801 28.0755L798.91 28.7273ZM828.995 116V114H809.222V116V118H828.995V116ZM809.222 116L811.125 115.382L789.264 48.0528L787.362 48.6705L785.459 49.2881L807.32 116.618L809.222 116ZM787.362 48.6705V46.6705H786.68V48.6705V50.6705H787.362V48.6705ZM786.68 48.6705L784.778 48.0517L762.874 115.381L764.776 116L766.678 116.619L788.582 49.2892L786.68 48.6705ZM763.54 81.696V83.696H810.245V81.696V79.696H763.54V81.696ZM810.245 81.696H808.245V96.0994H810.245H812.245V81.696H810.245ZM810.245 96.0994V94.0994H763.54V96.0994V98.0994H810.245V96.0994ZM763.54 96.0994H765.54V81.696H763.54H761.54V96.0994H763.54ZM839.499 116H837.499V118H839.499V116ZM839.499 28.7273V26.7273H837.499V28.7273H839.499ZM857.951 28.7273H859.951V26.7273H857.951V28.7273ZM857.951 67.2074H855.951V69.2074H857.951V67.2074ZM859.102 67.2074V69.2074H860.051L860.651 68.472L859.102 67.2074ZM890.508 28.7273V26.7273H889.559L888.958 27.4627L890.508 28.7273ZM912.624 28.7273L914.164 30.0035L916.879 26.7273H912.624V28.7273ZM880.238 67.804L878.698 66.5277L877.739 67.6853L878.584 68.9285L880.238 67.804ZM913.008 116V118H916.786L914.662 114.875L913.008 116ZM890.934 116L889.27 117.109L889.863 118H890.934V116ZM867.028 80.1193L868.692 79.0104L867.193 76.761L865.481 78.8519L867.028 80.1193ZM857.951 91.1989L856.404 89.9314L855.951 90.4842V91.1989H857.951ZM857.951 116V118H859.951V116H857.951ZM839.499 116H841.499V28.7273H839.499H837.499V116H839.499ZM839.499 28.7273V30.7273H857.951V28.7273V26.7273H839.499V28.7273ZM857.951 28.7273H855.951V67.2074H857.951H859.951V28.7273H857.951ZM857.951 67.2074V69.2074H859.102V67.2074V65.2074H857.951V67.2074ZM859.102 67.2074L860.651 68.472L892.057 29.9919L890.508 28.7273L888.958 27.4627L857.552 65.9428L859.102 67.2074ZM890.508 28.7273V30.7273H912.624V28.7273V26.7273H890.508V28.7273ZM912.624 28.7273L911.084 27.451L878.698 66.5277L880.238 67.804L881.778 69.0802L914.164 30.0035L912.624 28.7273ZM880.238 67.804L878.584 68.9285L911.354 117.125L913.008 116L914.662 114.875L881.892 66.6794L880.238 67.804ZM913.008 116V114H890.934V116V118H913.008V116ZM890.934 116L892.598 114.891L868.692 79.0104L867.028 80.1193L865.363 81.2283L889.27 117.109L890.934 116ZM867.028 80.1193L865.481 78.8519L856.404 89.9314L857.951 91.1989L859.498 92.4663L868.575 81.3868L867.028 80.1193ZM857.951 91.1989H855.951V116H857.951H859.951V91.1989H857.951ZM857.951 116V114H839.499V116V118H857.951V116ZM940.685 28.7273H942.685V26.7273H940.685V28.7273ZM940.685 116V118H942.685V116H940.685ZM922.234 116H920.234V118H922.234V116ZM922.234 28.7273V26.7273H920.234V28.7273H922.234ZM940.685 28.7273H938.685V116H940.685H942.685V28.7273H940.685ZM940.685 116V114H922.234V116V118H940.685V116ZM922.234 116H924.234V28.7273H922.234H920.234V116H922.234ZM922.234 28.7273V30.7273H940.685V28.7273V26.7273H922.234V28.7273Z" fill="#E85959" mask="url(#path-2-outside-1_15_52)"/>
<path d="M207.417 169.827C207.076 166.389 205.613 163.719 203.028 161.815C200.443 159.912 196.934 158.96 192.502 158.96C189.491 158.96 186.949 159.386 184.875 160.239C182.801 161.062 181.21 162.213 180.102 163.69C179.022 165.168 178.483 166.844 178.483 168.719C178.426 170.281 178.752 171.645 179.463 172.81C180.201 173.974 181.21 174.983 182.488 175.835C183.767 176.659 185.244 177.384 186.92 178.009C188.596 178.605 190.386 179.116 192.289 179.543L200.13 181.418C203.937 182.27 207.431 183.406 210.613 184.827C213.795 186.247 216.551 187.994 218.88 190.068C221.21 192.142 223.014 194.585 224.292 197.398C225.599 200.21 226.267 203.435 226.295 207.071C226.267 212.412 224.903 217.043 222.204 220.963C219.534 224.855 215.67 227.881 210.613 230.04C205.585 232.17 199.52 233.236 192.417 233.236C185.372 233.236 179.235 232.156 174.008 229.997C168.809 227.838 164.747 224.642 161.821 220.409C158.923 216.148 157.403 210.878 157.261 204.599H175.116C175.315 207.526 176.153 209.969 177.63 211.929C179.136 213.861 181.139 215.324 183.639 216.318C186.167 217.284 189.022 217.767 192.204 217.767C195.329 217.767 198.042 217.312 200.343 216.403C202.673 215.494 204.477 214.23 205.755 212.611C207.034 210.991 207.673 209.131 207.673 207.028C207.673 205.068 207.091 203.42 205.926 202.085C204.789 200.75 203.113 199.614 200.897 198.676C198.71 197.739 196.025 196.886 192.843 196.119L183.341 193.733C175.983 191.943 170.173 189.145 165.912 185.338C161.65 181.531 159.534 176.403 159.562 169.955C159.534 164.67 160.94 160.054 163.781 156.105C166.65 152.156 170.585 149.074 175.585 146.858C180.585 144.642 186.267 143.534 192.63 143.534C199.108 143.534 204.761 144.642 209.591 146.858C214.449 149.074 218.227 152.156 220.926 156.105C223.625 160.054 225.017 164.628 225.102 169.827H207.417ZM292.613 144.727H311.064V201.403C311.064 207.767 309.544 213.335 306.505 218.108C303.493 222.881 299.275 226.602 293.848 229.273C288.422 231.915 282.101 233.236 274.885 233.236C267.641 233.236 261.306 231.915 255.88 229.273C250.453 226.602 246.235 222.881 243.223 218.108C240.212 213.335 238.706 207.767 238.706 201.403V144.727H257.158V199.827C257.158 203.151 257.882 206.105 259.331 208.69C260.809 211.276 262.882 213.307 265.553 214.784C268.223 216.261 271.334 217 274.885 217C278.465 217 281.576 216.261 284.218 214.784C286.888 213.307 288.948 211.276 290.397 208.69C291.874 206.105 292.613 203.151 292.613 199.827V144.727ZM357.183 232H326.245V144.727H357.439C366.217 144.727 373.774 146.474 380.109 149.969C386.444 153.435 391.316 158.42 394.726 164.926C398.163 171.432 399.882 179.216 399.882 188.278C399.882 197.369 398.163 205.182 394.726 211.716C391.316 218.25 386.416 223.264 380.024 226.759C373.66 230.253 366.047 232 357.183 232ZM344.697 216.19H356.416C361.87 216.19 366.458 215.224 370.18 213.293C373.93 211.332 376.743 208.307 378.618 204.216C380.521 200.097 381.473 194.784 381.473 188.278C381.473 181.83 380.521 176.56 378.618 172.469C376.743 168.378 373.944 165.366 370.223 163.435C366.501 161.503 361.913 160.537 356.458 160.537H344.697V216.19ZM413.55 232V144.727H432.002V180.736H469.459V144.727H487.868V232H469.459V195.949H432.002V232H413.55ZM518.124 232H498.351L528.479 144.727H552.257L582.343 232H562.57L540.709 164.67H540.027L518.124 232ZM516.888 197.696H563.593V212.099H516.888V197.696ZM592.847 232V144.727H611.299V183.207H612.449L643.855 144.727H665.972L633.586 183.804L666.355 232H644.282L620.375 196.119L611.299 207.199V232H592.847ZM690.624 232H670.851L700.979 144.727H724.757L754.843 232H735.07L713.209 164.67H712.527L690.624 232ZM689.388 197.696H736.093V212.099H689.388V197.696ZM765.347 232V144.727H799.779C806.37 144.727 811.995 145.906 816.654 148.264C821.341 150.594 824.907 153.903 827.35 158.193C829.821 162.455 831.057 167.469 831.057 173.236C831.057 179.031 829.807 184.017 827.307 188.193C824.807 192.341 821.185 195.523 816.441 197.739C811.725 199.955 806.015 201.062 799.31 201.062H776.256V186.233H796.327C799.85 186.233 802.776 185.75 805.105 184.784C807.435 183.818 809.168 182.369 810.304 180.438C811.469 178.506 812.051 176.105 812.051 173.236C812.051 170.338 811.469 167.895 810.304 165.906C809.168 163.918 807.421 162.412 805.063 161.389C802.733 160.338 799.793 159.812 796.242 159.812H783.799V232H765.347ZM812.478 192.284L834.168 232H813.799L792.577 192.284H812.478Z" fill="#E85959"/>
</svg>
